<svg xmlns="http://www.w3.org/2000/svg" viewBox="0 0 256 256">
  <defs>
    <linearGradient id="bg" x1="0%" x2="100%" y1="0%" y2="100%">
      <stop offset="0%" stop-color="#0d2f2a" />
      <stop offset="100%" stop-color="#09151f" />
    </linearGradient>
    <linearGradient id="accent" x1="0%" x2="100%" y1="0%" y2="100%">
      <stop offset="0%" stop-color="#8ef1c0" />
      <stop offset="100%" stop-color="#9be7ff" />
    </linearGradient>
  </defs>
  <rect width="256" height="256" rx="64" fill="url(#bg)" />
  <circle cx="128" cy="84" r="44" fill="url(#accent)" opacity="0.28" />
  <ellipse cx="128" cy="210" rx="70" ry="16" fill="#061018" opacity="0.42" />
  <path
    d="M128 204 C118 164, 116 116, 126 86 C132 70, 142 56, 154 46 C170 46, 180 54, 184 66 C170 94, 160 138, 156 176 C154 188, 152 198, 148 204 Z"
    fill="#7a563f"
  />
  <path d="M144 112 C174 98, 190 82, 202 60" fill="none" stroke="#7a563f" stroke-linecap="round" stroke-width="12" />
  <path d="M138 140 C108 126, 92 112, 76 92" fill="none" stroke="#7a563f" stroke-linecap="round" stroke-width="12" />
  <ellipse cx="128" cy="86" rx="58" ry="38" fill="#8ef1c0" />
  <ellipse cx="98" cy="116" rx="38" ry="24" fill="#9be7ff" />
  <ellipse cx="162" cy="118" rx="44" ry="24" fill="#62d9b0" />
</svg>
